<svg width="20" height="20" viewBox="0 0 20 20" fill="none" xmlns="http://www.w3.org/2000/svg">
<g id="figma">
<path id="Icon" d="M10 1.66669H7.08335C6.30981 1.66669 5.56794 1.97398 5.02096 2.52096C4.47398 3.06794 4.16669 3.80981 4.16669 4.58335C4.16669 5.3569 4.47398 6.09877 5.02096 6.64575C5.56794 7.19273 6.30981 7.50002 7.08335 7.50002M10 1.66669V7.50002M10 1.66669H12.9167C13.2997 1.66669 13.679 1.74213 14.0328 1.8887C14.3867 2.03528 14.7082 2.25012 14.9791 2.52096C15.2499 2.7918 15.4648 3.11333 15.6113 3.46719C15.7579 3.82106 15.8334 4.20033 15.8334 4.58335C15.8334 4.96638 15.7579 5.34565 15.6113 5.69951C15.4648 6.05338 15.2499 6.37491 14.9791 6.64575C14.7082 6.91659 14.3867 7.13143 14.0328 7.278C13.679 7.42458 13.2997 7.50002 12.9167 7.50002M10 7.50002H7.08335M10 7.50002H12.9167M10 7.50002V13.3334M7.08335 7.50002C6.30981 7.50002 5.56794 7.80731 5.02096 8.35429C4.47398 8.90127 4.16669 9.64314 4.16669 10.4167C4.16669 11.1902 4.47398 11.9321 5.02096 12.4791C5.56794 13.0261 6.30981 13.3334 7.08335 13.3334M12.9167 7.50002C12.5337 7.50002 12.1544 7.57546 11.8005 7.72204C11.4467 7.86861 11.1251 8.08345 10.8543 8.35429C10.5835 8.62513 10.3686 8.94666 10.222 9.30053C10.0755 9.65439 10 10.0337 10 10.4167C10 10.7997 10.0755 11.179 10.222 11.5328C10.3686 11.8867 10.5835 12.2082 10.8543 12.4791C11.1251 12.7499 11.4467 12.9648 11.8005 13.1113C12.1544 13.2579 12.5337 13.3334 12.9167 13.3334C13.2997 13.3334 13.679 13.2579 14.0328 13.1113C14.3867 12.9648 14.7082 12.7499 14.9791 12.4791C15.2499 12.2082 15.4648 11.8867 15.6113 11.5328C15.7579 11.179 15.8334 10.7997 15.8334 10.4167C15.8334 10.0337 15.7579 9.65439 15.6113 9.30053C15.4648 8.94666 15.2499 8.62513 14.9791 8.35429C14.7082 8.08345 14.3867 7.86861 14.0328 7.72204C13.679 7.57546 13.2997 7.50002 12.9167 7.50002ZM7.08335 13.3334C6.30981 13.3334 5.56794 13.6406 5.02096 14.1876C4.47398 14.7346 4.16669 15.4765 4.16669 16.25C4.16669 17.0236 4.47398 17.7654 5.02096 18.3124C5.56794 18.8594 6.30981 19.1667 7.08335 19.1667C7.8569 19.1667 8.59877 18.8594 9.14575 18.3124C9.69273 17.7654 10 17.0236 10 16.25V13.3334M7.08335 13.3334H10" stroke="#7F56D9" stroke-width="1.66667" stroke-linecap="round" stroke-linejoin="round"/>
</g>
</svg>
